<svg version="1.1"
	 xmlns="http://www.w3.org/2000/svg" xmlns:xlink="http://www.w3.org/1999/xlink" xmlns:a="http://ns.adobe.com/AdobeSVGViewerExtensions/3.0/"
	 x="0px" y="0px" width="720px" height="155px" viewBox="0 0 1089 155" style="enable-background:new 0 0 1089 155;"
	 xml:space="preserve">
<style type="text/css">
	.st0{fill:none;stroke:#FF00FF;stroke-width:10;stroke-linecap:round;stroke-linejoin:round;stroke-miterlimit:5;}
	.st1{stroke:none;stroke-miterlimit:10 fill:#e1e1e1}
  .char-c,char-ny {
    fill:#1e1e1e;
  }
</style>
<defs>
</defs>
<path class="st0" d="M131,5.5"/>
<path d="M126,149.5c0,2.8,2.2,5,5,5s5-2.2,5-5V90.9l-10,0V149.5z"/>
<path class="st1" d="M198,149.5c0,2.8,2.2,5,5,5s5-2.2,5-5V90.8l-10,0V149.5z"/>
<path class="st1" d="M136,10.5h62v55.3l10,0V5.5c0-2.8-2.2-5-5-5h-72c-2.8,0-5,2.2-5,5v60.4l10,0V10.5z"/>
<path class="st1" d="M351,5.5c0-2.8-2.2-5-5-5s-5,2.2-5,5v60.2l10,0V5.5z"/>
<path class="st1" d="M315,5.5c0-2.8-2.2-5-5-5s-5,2.2-5,5v60.2l10,0V5.5z"/>
<path class="st1" d="M243,5.5c0-2.8-2.2-5-5-5s-5,2.2-5,5v60.3l10,0V5.5z"/>
<path class="st1" d="M268.5,149.5c0,2.8,2.2,5,5,5c0,0,0,0,0,0c2.7,0,5-2.2,5-5l0.4-58.8l-10,0L268.5,149.5z"/>
<path class="st1" d="M892,26.7l19.2,38.4l11.2,0L891.5,3.3c-1-2.1-3.4-3.2-5.6-2.6c-2.3,0.5-3.9,2.5-3.9,4.9v59.6l10,0V26.7z"/>
<path class="st1" d="M882,149.5c0,2.8,2.2,5,5,5s5-2.2,5-5V90.1l-10,0V149.5z"/>
<path class="st1" d="M964,5.5c0-2.8-2.2-5-5-5s-5,2.2-5,5V65l10,0V5.5z"/>
<path class="st1" d="M954,128.3l-19.1-38.3l-11.2,0l30.8,61.7c0.9,1.7,2.6,2.8,4.5,2.8c0.4,0,0.8,0,1.1-0.1c2.3-0.5,3.9-2.5,3.9-4.9
	V90l-10,0V128.3z"/>
<path class="st1" d="M423,5.5c0-2.8-2.2-5-5-5s-5,2.2-5,5v60.1l10,0V5.5z"/>
<path class="st1" d="M413,144.5h-62V90.7l-10,0v58.8c0,2.8,2.2,5,5,5h72c2.8,0,5-2.2,5-5V90.6l-10,0V144.5z"/>
<path class="st1" d="M630,144.5h-62v-54l-10,0v59c0,2.8,2.2,5,5,5h72c2.8,0,5-2.2,5-5V90.4l-10,0V144.5z"/>
<path class="st1" d="M568,10.5h62v54.9l10,0V5.5c0-2.8-2.2-5-5-5h-72c-2.8,0-5,2.2-5,5v60l10,0V10.5z"/>
<path class="char-c" d="M460,10.5h67c2.8,0,5-2.2,5-5s-2.2-5-5-5h-72c-2.8,0-5,2.2-5,5v60.1l10,0V10.5z"/>
<path class="char-c" d="M450,149.5c0,2.8,2.2,5,5,5h72c2.8,0,5-2.2,5-5s-2.2-5-5-5h-67V90.6l-10,0V149.5z"/>
<path class="st1" d="M676,5.5c0-2.8-2.2-5-5-5s-5,2.2-5,5v59.8l10,0V5.5z"/>
<path class="st1" d="M666,149.5c0,2.8,2.2,5,5,5h72c2.8,0,5-2.2,5-5s-2.2-5-5-5h-67V90.3l-10,0V149.5z"/>
<path class="st1" d="M846,144.5h-62V90.2l-10,0v59.3c0,2.8,2.2,5,5,5h72c2.8,0,5-2.2,5-5V90.1l-10,0V144.5z"/>
<path class="st1" d="M784,10.5h62v54.7l10,0V5.5c0-2.8-2.2-5-5-5h-72c-2.8,0-5,2.2-5,5v59.7l10,0V10.5z"/>
<path d="M77,154.5c-1.9,0-3.6-1-4.5-2.8L10,26.7v122.8c0,2.8-2.2,5-5,5s-5-2.2-5-5V5.5c0-2.3,1.6-4.3,3.9-4.9
	c2.3-0.5,4.6,0.6,5.6,2.6L72,128.3V5.5c0-2.3,1.6-4.3,3.9-4.9c2.3-0.5,4.6,0.6,5.6,2.6l34.6,69.2h857.8l34.6-69.2
	c1-2.1,3.4-3.2,5.6-2.6c2.3,0.5,3.9,2.5,3.9,4.9v67h61v-67c0-2.8,2.2-5,5-5s5,2.2,5,5v144c0,2.8-2.2,5-5,5h-72c-2.8,0-5-2.2-5-5
	s2.2-5,5-5h67v-62h-66c-2.8,0-5-2.2-5-5V26.7l-26.5,53.1c-0.8,1.7-2.6,2.8-4.5,2.8H113c-1.9,0-3.6-1.1-4.5-2.8L82,26.7v122.8
	c0,2.3-1.6,4.3-3.9,4.9C77.8,154.5,77.4,154.5,77,154.5z" class="char-ny"/>
</svg>
